%TF.GenerationSoftware,KiCad,Pcbnew,9.0.1*%
%TF.CreationDate,2025-06-04T16:34:01-03:00*%
%TF.ProjectId,PlacaGenerica-bjt,506c6163-6147-4656-9e65-726963612d62,rev?*%
%TF.SameCoordinates,Original*%
%TF.FileFunction,Copper,L2,Bot*%
%TF.FilePolarity,Positive*%
%FSLAX46Y46*%
G04 Gerber Fmt 4.6, Leading zero omitted, Abs format (unit mm)*
G04 Created by KiCad (PCBNEW 9.0.1) date 2025-06-04 16:34:01*
%MOMM*%
%LPD*%
G01*
G04 APERTURE LIST*
G04 Aperture macros list*
%AMRoundRect*
0 Rectangle with rounded corners*
0 $1 Rounding radius*
0 $2 $3 $4 $5 $6 $7 $8 $9 X,Y pos of 4 corners*
0 Add a 4 corners polygon primitive as box body*
4,1,4,$2,$3,$4,$5,$6,$7,$8,$9,$2,$3,0*
0 Add four circle primitives for the rounded corners*
1,1,$1+$1,$2,$3*
1,1,$1+$1,$4,$5*
1,1,$1+$1,$6,$7*
1,1,$1+$1,$8,$9*
0 Add four rect primitives between the rounded corners*
20,1,$1+$1,$2,$3,$4,$5,0*
20,1,$1+$1,$4,$5,$6,$7,0*
20,1,$1+$1,$6,$7,$8,$9,0*
20,1,$1+$1,$8,$9,$2,$3,0*%
G04 Aperture macros list end*
%TA.AperFunction,ComponentPad*%
%ADD10C,2.500000*%
%TD*%
%TA.AperFunction,ComponentPad*%
%ADD11RoundRect,0.416667X-0.833333X0.833333X-0.833333X-0.833333X0.833333X-0.833333X0.833333X0.833333X0*%
%TD*%
%TA.AperFunction,SMDPad,CuDef*%
%ADD12R,4.000000X4.000000*%
%TD*%
%TA.AperFunction,Conductor*%
%ADD13C,1.000000*%
%TD*%
G04 APERTURE END LIST*
D10*
%TO.P,R4,1*%
%TO.N,GND*%
X93130000Y-65610000D03*
%TO.P,R4,2*%
%TO.N,Net-(Q1-B)*%
X103290000Y-65610000D03*
%TD*%
D11*
%TO.P,Q1,1,C*%
%TO.N,Net-(Q1-C)*%
X109130000Y-60550000D03*
D10*
%TO.P,Q1,2,B*%
%TO.N,Net-(Q1-B)*%
X111670000Y-63090000D03*
%TO.P,Q1,3,E*%
%TO.N,Net-(Q1-E)*%
X109130000Y-65630000D03*
%TD*%
%TO.P,R5,1*%
%TO.N,GND*%
X101580000Y-70040000D03*
%TO.P,R5,2*%
%TO.N,Net-(Q1-E)*%
X111740000Y-70040000D03*
%TD*%
%TO.P,C1,1*%
%TO.N,Net-(Q1-E)*%
X98470000Y-70100000D03*
%TO.P,C1,2*%
%TO.N,GND*%
X93470000Y-70100000D03*
%TD*%
%TO.P,C3,1*%
%TO.N,VAC*%
X89360000Y-60180000D03*
%TO.P,C3,2*%
%TO.N,Net-(C3-Pad2)*%
X89360000Y-55180000D03*
%TD*%
%TO.P,C2,1*%
%TO.N,Net-(Q1-C)*%
X106590000Y-52910000D03*
%TO.P,C2,2*%
%TO.N,VOUT*%
X111590000Y-52910000D03*
%TD*%
%TO.P,R1,1*%
%TO.N,Net-(C3-Pad2)*%
X93310000Y-61680000D03*
%TO.P,R1,2*%
%TO.N,Net-(Q1-B)*%
X103470000Y-61680000D03*
%TD*%
%TO.P,R2,1*%
%TO.N,Net-(Q1-B)*%
X103110000Y-57310000D03*
%TO.P,R2,2*%
%TO.N,VCC*%
X92950000Y-57310000D03*
%TD*%
%TO.P,R3,1*%
%TO.N,Net-(Q1-C)*%
X103370000Y-52900000D03*
%TO.P,R3,2*%
%TO.N,VCC*%
X93210000Y-52900000D03*
%TD*%
D12*
%TO.P,J3,1,Pin_1*%
%TO.N,VOUT*%
X111440000Y-75240000D03*
%TD*%
%TO.P,J1,1,Pin_1*%
%TO.N,VAC*%
X96660000Y-75240000D03*
%TD*%
%TO.P,J4,1,Pin_1*%
%TO.N,GND*%
X104050000Y-75240000D03*
%TD*%
%TO.P,J2,1,Pin_1*%
%TO.N,VCC*%
X89270000Y-75240000D03*
%TD*%
D13*
%TO.N,GND*%
X101580000Y-72770000D02*
X104050000Y-75240000D01*
X93470000Y-70100000D02*
X93470000Y-65950000D01*
X101580000Y-70040000D02*
X101580000Y-72770000D01*
X100980000Y-72320000D02*
X95690000Y-72320000D01*
X95690000Y-72320000D02*
X93470000Y-70100000D01*
X93470000Y-65950000D02*
X93130000Y-65610000D01*
%TO.N,Net-(Q1-E)*%
X111740000Y-70040000D02*
X111740000Y-68240000D01*
X100670000Y-67900000D02*
X106860000Y-67900000D01*
X106860000Y-67900000D02*
X109130000Y-65630000D01*
X98470000Y-70100000D02*
X100670000Y-67900000D01*
X111740000Y-68240000D02*
X109130000Y-65630000D01*
%TO.N,Net-(Q1-C)*%
X103380000Y-52910000D02*
X103370000Y-52900000D01*
X106590000Y-58010000D02*
X109130000Y-60550000D01*
X106590000Y-52910000D02*
X106590000Y-58010000D01*
X106590000Y-52910000D02*
X103380000Y-52910000D01*
%TO.N,VOUT*%
X111590000Y-52910000D02*
X114550000Y-55870000D01*
X114550000Y-72130000D02*
X111440000Y-75240000D01*
X114550000Y-55870000D02*
X114550000Y-72130000D01*
%TO.N,Net-(C3-Pad2)*%
X93310000Y-60830000D02*
X93310000Y-61680000D01*
X89360000Y-55180000D02*
X89360000Y-56880000D01*
X89360000Y-56880000D02*
X93310000Y-60830000D01*
%TO.N,VAC*%
X95100000Y-75240000D02*
X96660000Y-75240000D01*
X89360000Y-60180000D02*
X89360000Y-69500000D01*
X89360000Y-69500000D02*
X95100000Y-75240000D01*
%TO.N,VCC*%
X87030000Y-54480000D02*
X88610000Y-52900000D01*
X92950000Y-57310000D02*
X92950000Y-53160000D01*
X89270000Y-75240000D02*
X87030000Y-73000000D01*
X88610000Y-52900000D02*
X93210000Y-52900000D01*
X87030000Y-73000000D02*
X87030000Y-54480000D01*
X92950000Y-53160000D02*
X93210000Y-52900000D01*
%TO.N,Net-(Q1-B)*%
X103290000Y-61860000D02*
X103470000Y-61680000D01*
X103470000Y-57670000D02*
X103110000Y-57310000D01*
X104880000Y-63090000D02*
X103470000Y-61680000D01*
X111670000Y-63090000D02*
X104880000Y-63090000D01*
X103470000Y-61680000D02*
X103470000Y-57670000D01*
X103290000Y-65610000D02*
X103290000Y-61860000D01*
%TD*%
M02*
